<svg id="Layer_1" data-name="Layer 1" xmlns="http://www.w3.org/2000/svg" viewBox="0 0 150 300"><defs><style>.cls-1{fill:#2d2d2d;}.cls-2{fill:#fc87a5;}</style></defs><title>hd_svg_logo</title><path class="cls-1" d="M25.1,179.68H21v-15H31.74v1.92H25.1v4.63h5.13v1.9H25.1Z"/><path class="cls-1" d="M44.66,179.68H33.89v-15H44.66v1.92H38v4.63h5.13v1.9H38v4.63h6.64Z"/><path class="cls-1" d="M51.35,179.68H47.22v-15h7.37a8.38,8.38,0,0,1,2,.24,5.14,5.14,0,0,1,1.71.78,3.88,3.88,0,0,1,1.19,1.35,4.33,4.33,0,0,1,.44,2,4,4,0,0,1-.39,1.75,5.33,5.33,0,0,1-1,1.46,6,6,0,0,1-1.5,1.06,5.75,5.75,0,0,1-1.75.55c.28.46.56.9.85,1.31s.6.79.9,1.15.6.68.9,1,.58.57.85.82a15.48,15.48,0,0,0,1.9,1.51H55.5a8.55,8.55,0,0,1-1.18-1.42,13.76,13.76,0,0,1-1-1.76,10.29,10.29,0,0,1-.74-2.42H51.35Zm4.39-10.6a2.94,2.94,0,0,0-.73-2.21,3,3,0,0,0-2.2-.71H51.35v6.51h1.46a2.82,2.82,0,0,0,1.34-.3,2.67,2.67,0,0,0,.91-.79,3.5,3.5,0,0,0,.52-1.14A5.45,5.45,0,0,0,55.74,169.08Z"/><path class="cls-1" d="M66.74,179.68H62.6v-15h4.14v7.14a28.17,28.17,0,0,0,3.57-3.26,20.84,20.84,0,0,0,2.86-3.89H76a22.59,22.59,0,0,1-2.53,3.52,26.9,26.9,0,0,1-3.1,3l6,8.45H72l-4.51-6.37-.39.26-.4.25Z"/><path class="cls-1" d="M88.78,179.68H78v-15H88.78v1.92H82.15v4.63h5.12v1.9H82.15v4.63h6.63Z"/><path class="cls-1" d="M102.11,179.68H91.34v-15h4.13v13.09h6.64Z"/><path class="cls-1" d="M16.65,159H12.87V145.28h9.85V147H16.65v4.23h4.69V153H16.65Z"/><path class="cls-1" d="M28.47,159H24.69V145.28h3.78Z"/><path class="cls-1" d="M33.33,159H31.58V145.28H34l8.33,9.42v-9.42h1.74V159H41.66l-8.33-9.41Z"/><path class="cls-1" d="M64.49,159H62.74V145.28h2.45l8.34,9.42v-9.42h1.74V159H72.82l-8.33-9.41Z"/><path class="cls-1" d="M89.19,159H77.69v-1.75h0L84.86,147H77.69v-1.76h11.5V147L82,157.25h7.17Z"/><path class="cls-2" d="M135.85,143.18c-4-12.44-17.28-11.75-17.28-11.75-4.47-17.83-23.36-9-15.7-8.35s9.9,7.85,9.9,7.85-2.72-.45-7.38,1.06c-9.32,3-13.43,11-11.86,15.79s6.85,5.79,11.43,4.31c11.22-3.66,12.8-14.74,12.8-14.74s8.35-.17,11,7.89c3.48,10.73-6.66,17.6-21.76,22.94v11.5C135.4,170.43,139.9,155.6,135.85,143.18Zm-32.94,2.62a4.32,4.32,0,0,1-3,.11s0-.07-.06-.17c-.24-1.1,1.57-5.5,7.61-7.47a16.36,16.36,0,0,1,3.51-.76A12.48,12.48,0,0,1,102.91,145.8Zm7.27-12.69A26.93,26.93,0,0,0,107,134a22.89,22.89,0,0,0-5.8,3c-.42.35-.86.66-1.27,1s-.8.73-1.16,1.14a16.43,16.43,0,0,0-2,2.57,12.53,12.53,0,0,0-1.3,3,7,7,0,0,0-.19,3.28,6.11,6.11,0,0,1-.36-3.39,11.08,11.08,0,0,1,1.06-3.3,15.59,15.59,0,0,1,4.51-5.24c.49-.32,1-.66,1.46-.95l.75-.42a8,8,0,0,1,.77-.4l.8-.34a5.56,5.56,0,0,1,.8-.32c.54-.18,1.08-.39,1.64-.53a19.31,19.31,0,0,1,3.36-.63,11.46,11.46,0,0,1,3.41.11A15.43,15.43,0,0,0,110.18,133.11Zm23.22,26.42a25.9,25.9,0,0,1-8.18,9.17,47,47,0,0,1-10.79,5.64c1.76-1,3.58-1.88,5.25-3a28.56,28.56,0,0,0,2.52-1.63c.81-.6,1.67-1.12,2.41-1.79a28,28,0,0,0,7.61-9,19.7,19.7,0,0,0,1.85-11.43,23.29,23.29,0,0,0-1.47-5.74,14.29,14.29,0,0,0-3.33-4.94,13.56,13.56,0,0,1,3.92,4.67,24,24,0,0,1,1.88,5.86A19.38,19.38,0,0,1,133.4,159.53Z"/><path class="cls-1" d="M45.66,158.27c1-1.77,2.05-3.54,3.07-5.33s2.08-3.56,3.1-5.35l1.29-2.25s0,0,.05-.06l0,.06.61,1.06c.93,1.62,1.86,3.21,2.79,4.83.68,1.16,1.33,2.32,2,3.48s1.34,2.34,2,3.5c.15.26.31.53.45.79H58.33c-.36-.63-.73-1.24-1.09-1.87a.06.06,0,0,1,0,0s0,0,0,0h-8a.09.09,0,0,0-.09.06c-.09.18-.21.33-.3.51-.27.45-.54.93-.79,1.38H45.25C45.38,158.76,45.52,158.53,45.66,158.27Zm4.79-3.36h5.43s0,0,0,0v0s0,0,0-.06l-2.31-4c-.12-.21-.25-.45-.39-.67,0,0,0,0,0-.06s0,0-.05.06c-.22.38-.43.77-.65,1.14-.68,1.17-1.36,2.35-2,3.51,0,0,0,0,0,0S50.41,154.89,50.45,154.91Z"/></svg>